<svg xmlns="http://www.w3.org/2000/svg" version="1.1" xmlns:xlink="http://www.w3.org/1999/xlink" xmlns:svgjs="http://svgjs.com/svgjs" width="512" height="512" x="0" y="0" viewBox="0 0 512.005 512.005" style="enable-background:new 0 0 512 512" xml:space="preserve" class=""><g><g><path d="m208.503 496c-5.304 0-10.598-2.097-14.531-6.254-14.491-15.315-22.472-34.646-22.472-54.432v-415.314c0-11.046 8.954-20 20-20s20 8.954 20 20v415.314c0 12.196 6.269 21.382 11.527 26.939 7.592 8.023 7.242 20.682-.781 28.273-3.866 3.66-8.81 5.474-13.743 5.474z" fill="#0023c4" data-original="#0023c4" class=""></path><path d="m279.486 512.005c-8.888 0-17-5.967-19.342-14.969-2.781-10.69 3.63-21.61 14.32-24.392 10.624-2.765 22.903-6.968 38.644-13.229 10.263-4.079 21.893.929 25.976 11.192s-.929 21.894-11.192 25.976c-17.315 6.887-31.092 11.581-43.356 14.771-1.688.441-3.383.651-5.05.651z" fill="#ff5cf4" data-original="#ff5cf4"></path></g></g></svg>