<svg xmlns="http://www.w3.org/2000/svg" version="1.1" xmlns:xlink="http://www.w3.org/1999/xlink" xmlns:svgjs="http://svgjs.com/svgjs" width="512" height="512" x="0" y="0" viewBox="0 0 512 512" style="enable-background:new 0 0 512 512" xml:space="preserve" class=""><g><g><g><path d="m316.713 167.048c-3.155 0-5.92-2.111-6.752-5.154l-10.333-37.799-37.8-10.332c-3.043-.832-5.154-3.597-5.154-6.752s2.111-5.92 5.154-6.752l37.8-10.332 10.333-37.8c.832-3.043 3.597-5.154 6.752-5.154 3.155 0 5.921 2.111 6.752 5.154l10.332 37.8 37.8 10.332c3.044.832 5.154 3.597 5.154 6.752s-2.111 5.92-5.154 6.752l-37.8 10.332-10.332 37.799c-.831 3.043-3.597 5.154-6.752 5.154zm-26.489-60.037 16.949 4.632c2.388.653 4.254 2.519 4.906 4.907l4.634 16.95 4.633-16.95c.652-2.388 2.519-4.254 4.906-4.907l16.949-4.632-16.949-4.632c-2.388-.653-4.254-2.519-4.906-4.907l-4.633-16.95-4.634 16.95c-.652 2.388-2.519 4.254-4.906 4.907z" fill="#000000" data-original="#000000" class=""></path></g><g><path d="m430.439 284.105c-3.155 0-5.921-2.11-6.752-5.154l-10.836-39.642-39.644-10.834c-3.043-.832-5.154-3.597-5.154-6.752s2.11-5.92 5.154-6.752l39.644-10.836 10.836-39.642c.831-3.043 3.597-5.154 6.752-5.154 3.155 0 5.921 2.111 6.752 5.154l10.835 39.642 39.643 10.836c3.044.832 5.154 3.597 5.154 6.752s-2.111 5.92-5.154 6.752l-39.643 10.834-10.835 39.642c-.831 3.043-3.596 5.154-6.752 5.154zm-28.835-62.383 18.792 5.136c2.388.653 4.254 2.519 4.906 4.907l5.137 18.791 5.136-18.791c.652-2.388 2.519-4.254 4.906-4.907l18.792-5.136-18.792-5.137c-2.389-.653-4.254-2.519-4.906-4.907l-5.136-18.791-5.137 18.791c-.652 2.388-2.519 4.254-4.906 4.907z" fill="#000000" data-original="#000000" class=""></path></g><g><path d="m278.135 346.457c-3.155 0-5.921-2.111-6.752-5.154l-11.097-40.599-40.6-11.096c-3.044-.831-5.155-3.597-5.155-6.752s2.111-5.92 5.154-6.752l40.6-11.099 11.097-40.598c.831-3.043 3.597-5.154 6.752-5.154s5.921 2.111 6.752 5.154l11.097 40.598 40.6 11.099c3.044.832 5.154 3.597 5.154 6.752s-2.111 5.921-5.154 6.752l-40.6 11.096-11.097 40.599c-.83 3.043-3.596 5.154-6.751 5.154zm-30.052-63.602 19.749 5.397c2.388.652 4.254 2.519 4.906 4.906l5.397 19.747 5.397-19.747c.652-2.388 2.519-4.254 4.906-4.906l19.748-5.397-19.748-5.398c-2.389-.652-4.254-2.519-4.906-4.906l-5.397-19.747-5.397 19.747c-.652 2.388-2.518 4.254-4.906 4.906z" fill="#000000" data-original="#000000" class=""></path></g><g><path d="m236.916 469.785c-58.159 0-112.838-22.649-153.964-63.775s-63.775-95.804-63.775-153.963c0-48.391 15.539-94.206 44.936-132.492 28.462-37.068 68.772-64.441 113.504-77.077 3.014-.852 6.228.403 7.868 3.073 1.639 2.669 1.306 6.103-.817 8.407-34.735 37.701-53.864 86.715-53.864 138.012 0 112.342 91.397 203.739 203.74 203.739 18.872 0 37.546-2.576 55.503-7.655 3.017-.854 6.229.4 7.869 3.07 1.641 2.669 1.308 6.104-.815 8.407-20.19 21.919-44.161 39.186-71.246 51.32-28.043 12.564-57.966 18.934-88.939 18.934zm-78.563-405.78c-74.767 31.311-125.176 105.475-125.176 188.042 0 112.342 91.397 203.738 203.739 203.738 48.601 0 95.634-17.562 132.311-48.827-11.421 1.829-23.019 2.751-34.684 2.751-58.159 0-112.838-22.649-153.964-63.775s-63.775-95.805-63.775-153.964c-.001-46.34 14.609-90.939 41.549-127.965z" fill="#000000" data-original="#000000" class=""></path></g></g></g></svg>