<svg xmlns="http://www.w3.org/2000/svg" version="1.1" xmlns:xlink="http://www.w3.org/1999/xlink" xmlns:svgjs="http://svgjs.com/svgjs" width="512" height="512" x="0" y="0" viewBox="0 0 32 32" style="enable-background:new 0 0 512 512" xml:space="preserve" class=""><g><path d="m23 1a8 8 0 0 0 -6.92 4h-12.08a3 3 0 0 0 -3 3v20a3 3 0 0 0 3 3h17a1 1 0 0 0 1-1v-13.07a8.26 8.26 0 0 0 1 .07 8 8 0 0 0 0-16zm-3 28h-16a1 1 0 0 1 0-2h16zm0-4h-16a3 3 0 0 0 -1 .18v-17.18a1 1 0 0 1 1-1h11.26a8.24 8.24 0 0 0 -.26 2 8 8 0 0 0 5 7.41zm3-10a6 6 0 1 1 6-6 6 6 0 0 1 -6 6z" fill="#000000" data-original="#000000" class=""></path><path d="m24 5h-2v4a1 1 0 0 0 .29.71l2.71 2.7 1.41-1.41-2.41-2.41z" fill="#000000" data-original="#000000" class=""></path><path d="m5.5 21h12v2h-12z" fill="#000000" data-original="#000000" class=""></path><path d="m9.5 17h8v2h-8z" fill="#000000" data-original="#000000" class=""></path><path d="m5.5 17h2.5v2h-2.5z" fill="#000000" data-original="#000000" class=""></path></g></svg>