<svg xmlns="http://www.w3.org/2000/svg" version="1.1" xmlns:xlink="http://www.w3.org/1999/xlink" xmlns:svgjs="http://svgjs.com/svgjs" width="512" height="512" x="0" y="0" viewBox="0 0 512 512" style="enable-background:new 0 0 512 512" xml:space="preserve" class="hovered-paths"><g><g id="_39_Reading" data-name="39 Reading"><path d="M256,435.22H66.72A38.78,38.78,0,0,1,28,396.49V149.94a38.77,38.77,0,0,1,38.73-38.72H175.84a6,6,0,0,1,5.7,7.87A78.38,78.38,0,0,0,256,221.86a6,6,0,0,1,6,6V429.22A6,6,0,0,1,256,435.22Zm-189.27-312A26.76,26.76,0,0,0,40,149.94V396.49a26.77,26.77,0,0,0,26.73,26.73H250V233.66a90.38,90.38,0,0,1-82-110.44Z" fill="#000000" data-original="#000000" class="hovered-path"></path><path d="M445.26,435.22H256a6,6,0,0,1-6-6V227.86a6,6,0,0,1,6-6,78.41,78.41,0,0,0,74.47-102.77,6,6,0,0,1,5.69-7.87H445.26A38.77,38.77,0,0,1,484,149.94V396.49A38.77,38.77,0,0,1,445.26,435.22ZM262,423.22H445.26A26.76,26.76,0,0,0,472,396.49V149.94a26.75,26.75,0,0,0-26.73-26.72H344.05A90.42,90.42,0,0,1,262,233.66Z" fill="#000000" data-original="#000000" class="hovered-path"></path><path d="M463.37,458.83H48.62A43.68,43.68,0,0,1,5,415.2V270a6,6,0,0,1,12,0V415.2a31.66,31.66,0,0,0,31.62,31.63H463.37A31.67,31.67,0,0,0,495,415.2V178.46a31.46,31.46,0,0,0-11-24v242a38.77,38.77,0,0,1-38.73,38.73H66.72A38.77,38.77,0,0,1,28,396.49v-242a31.5,31.5,0,0,0-11,24v44.69a6,6,0,0,1-12,0V178.46A43.44,43.44,0,0,1,32.4,138a6,6,0,0,1,8.12,6.73A27.53,27.53,0,0,0,40,150V396.49a26.76,26.76,0,0,0,26.72,26.73H445.27A26.76,26.76,0,0,0,472,396.49V150a27.52,27.52,0,0,0-.51-5.27,6,6,0,0,1,8.12-6.73A43.45,43.45,0,0,1,507,178.46V415.2A43.68,43.68,0,0,1,463.37,458.83Z" fill="#000000" data-original="#000000" class="hovered-path"></path><path d="M11,257.05a6,6,0,0,1-6-6v-9a6,6,0,0,1,12,0v9A6,6,0,0,1,11,257.05Z" fill="#000000" data-original="#000000" class="hovered-path"></path><path d="M256,233.86a90.35,90.35,0,1,1,90.34-90.34A90.45,90.45,0,0,1,256,233.86Zm0-168.69a78.35,78.35,0,1,0,78.34,78.35A78.43,78.43,0,0,0,256,65.17Z" fill="#000000" data-original="#000000" class="hovered-path"></path><path d="M177,178.22H83.49a5,5,0,1,1,0-10H177a5,5,0,0,1,0,10Z" fill="#000000" data-original="#000000" class="hovered-path"></path><path d="M206.5,228.21h-123a5,5,0,1,1,0-10h123a5,5,0,0,1,0,10Z" fill="#000000" data-original="#000000" class="hovered-path"></path><path d="M206.5,278.21h-123a5,5,0,0,1,0-10h123a5,5,0,0,1,0,10Z" fill="#000000" data-original="#000000" class="hovered-path"></path><path d="M206.5,328.21h-123a5,5,0,0,1,0-10h123a5,5,0,1,1,0,10Z" fill="#000000" data-original="#000000" class="hovered-path"></path><path d="M206.5,378.21h-123a5,5,0,0,1,0-10h123a5,5,0,1,1,0,10Z" fill="#000000" data-original="#000000" class="hovered-path"></path><path d="M428.5,178.22H335a5,5,0,0,1,0-10H428.5a5,5,0,0,1,0,10Z" fill="#000000" data-original="#000000" class="hovered-path"></path><path d="M428.5,228.21h-123a5,5,0,0,1,0-10h123a5,5,0,0,1,0,10Z" fill="#000000" data-original="#000000" class="hovered-path"></path><path d="M428.5,278.21h-123a5,5,0,0,1,0-10h123a5,5,0,0,1,0,10Z" fill="#000000" data-original="#000000" class="hovered-path"></path><path d="M428.5,328.21h-123a5,5,0,0,1,0-10h123a5,5,0,0,1,0,10Z" fill="#000000" data-original="#000000" class="hovered-path"></path><path d="M428.5,378.21h-123a5,5,0,0,1,0-10h123a5,5,0,0,1,0,10Z" fill="#000000" data-original="#000000" class="hovered-path"></path><path d="M296.57,165.39a6,6,0,0,1-2.68-.63l-39.43-19.71a5.93,5.93,0,0,1-2.06-1.69l-1.14-1.47a6,6,0,0,1-1.26-3.67V94.13a6,6,0,0,1,12,0v41.28L299.26,154a6,6,0,0,1-2.69,11.37Z" fill="#000000" data-original="#000000" class="hovered-path"></path></g></g></svg>